<?xml version="1.0" encoding="utf-8"?>
<!-- Generator: Adobe Illustrator 25.4.1, SVG Export Plug-In . SVG Version: 6.00 Build 0)  -->
<svg version="1.1" id="flag-icons-ca" xmlns="http://www.w3.org/2000/svg" xmlns:xlink="http://www.w3.org/1999/xlink" x="0px"
	 y="0px" viewBox="0 0 512 512" style="enable-background:new 0 0 512 512;" xml:space="preserve">
<style type="text/css">
	.st0{fill:#FFFFFF;}
	.st1{fill:#D52B1E;}
</style>
<path class="st0" d="M-46.9,203.1L209.3-53.1l362,362L315.2,565.1L-46.9,203.1z"/>
<path class="st1" d="M-174.9,331.1l128.1-128.1l362,362L187.1,693.2L-174.9,331.1z M209.3-53.1l128.1-128.1l362,362L571.4,308.9
	L209.3-53.1z M166.4,339.7l-6.5,13.3l86.9-5.6c14,6.9,12.3,14.7,14.8,23.3l43.8-56.6l49.3,51.8l10.1-10.8l-52.5-47.8l56.3-44.4
	c-9.7-3.5-15.9-4.2-23.5-17.5l7.7-84.8l-11,5.2c-11.8,1.5-21.8-27.4-32.7-41.2c0,0-17.7,36.2-24.3,33.1l-20.1-6.1l2.4,51.3
	c-2,3.4-4.2,3.4-7.1,1.8l-45-67.7l-7.8,28.1c-0.8,2.1-3,3-5.7,2.3l-52-17.3l18.2,53.8c-0.1,2.6-1.3,4.1-3.3,4.4l-26.7,7.5l66.3,45.7
	c1.3,2.9,0.1,5.6-3.4,6.6l-50.3-3.2c1.9,8,7.8,18.2,5.7,24c-2.4,5.7-21.1,14.2-32.2,21.4C138,318.5,166.5,327.5,166.4,339.7
	L166.4,339.7z"/>
</svg>
