<?xml version="1.0" encoding="utf-8"?>
<!-- Generator: Adobe Illustrator 25.4.1, SVG Export Plug-In . SVG Version: 6.00 Build 0)  -->
<svg version="1.1" id="flag-icons-gr" xmlns="http://www.w3.org/2000/svg" xmlns:xlink="http://www.w3.org/1999/xlink" x="0px"
	 y="0px" viewBox="0 0 512 512" style="enable-background:new 0 0 512 512;" xml:space="preserve">
<style type="text/css">
	.st0{fill-rule:evenodd;clip-rule:evenodd;fill:#0D5EAF;}
	.st1{fill-rule:evenodd;clip-rule:evenodd;fill:#FFFFFF;}
	.st2{fill:#0D5EAF;}
</style>
<path class="st0" d="M-256,256l512-512l57,57l-512,512L-256,256z"/>
<path class="st1" d="M-199,313l512-512l57,57l-512,512L-199,313z"/>
<path class="st0" d="M-142,370l512-512l57,57L-85,427L-142,370z"/>
<path class="st1" d="M-85,427L427-85l57,57L-28,484L-85,427z"/>
<path class="st0" d="M-28,484L484-28l56.9,56.9l-512,512L-28,484z"/>
<path class="st1" d="M28.9,540.9l512-512l57,57l-512,512L28.9,540.9z"/>
<path class="st0" d="M85.9,597.9l512-512l57,57l-512,512L85.9,597.9z"/>
<path class="st1" d="M142.9,654.9l512-512l57,57l-512,512L142.9,654.9z"/>
<path class="st2" d="M-256,256L28.9-28.9L313.8,256L28.9,540.9L-256,256z"/>
<g>
	<path class="st1" d="M-142,142l57-57l284.9,284.9l-57,57L-142,142z"/>
	<path class="st1" d="M-142,370L142.9,85.1l57,57L-85,427L-142,370z"/>
</g>
<path class="st0" d="M199,711l512-512l57,57L256,768L199,711z"/>
</svg>
