<?xml version="1.0" encoding="utf-8"?>
<!-- Generator: Adobe Illustrator 25.4.1, SVG Export Plug-In . SVG Version: 6.00 Build 0)  -->
<svg version="1.1" id="flag-icons-il" xmlns="http://www.w3.org/2000/svg" xmlns:xlink="http://www.w3.org/1999/xlink" x="0px"
	 y="0px" viewBox="0 0 512 512" style="enable-background:new 0 0 512 512;" xml:space="preserve">
<style type="text/css">
	.st0{clip-path:url(#SVGID_00000028302159325211470650000006028544849684705470_);}
	.st1{fill-rule:evenodd;clip-rule:evenodd;fill:#FFFFFF;}
	.st2{fill-rule:evenodd;clip-rule:evenodd;fill:#0038B8;}
</style>
<g>
	<g>
		<defs>
			
				<rect id="SVGID_1_" x="-106.8" y="-106.7" transform="matrix(0.7071 -0.7071 0.7071 0.7071 -106.0397 255.9975)" width="725.5" height="725.5"/>
		</defs>
		<clipPath id="SVGID_00000061468387752035240610000005594024351178840982_">
			<use xlink:href="#SVGID_1_"  style="overflow:visible;"/>
		</clipPath>
		<g style="clip-path:url(#SVGID_00000061468387752035240610000005594024351178840982_);">
			<path class="st1" d="M876.6,148.4L143.8,881.2l-513-513l732.7-732.9L876.6,148.4z"/>
			<path class="st2" d="M479-249.2l-732.9,732.9l-67.3-67.3l732.9-732.9L479-249.2z M830.2,102L97.4,834.8L30,767.5L762.9,34.7
				L830.2,102z M70.8,310.4L373,392L294.7,88.2L70.8,310.4z"/>
			<path class="st1" d="M287.6,348.2l56.5,14.6L330.3,306L287.6,348.2z"/>
			<path class="st2" d="M200.5,440.9l-81.6-302.4L422.6,217L200.5,440.9z"/>
			<path class="st1" d="M161.2,221.7l-14.6-56.5l57,14L161.2,221.7z M197.1,345.3l14.3,57.8l41-41.2L197.1,345.3L197.1,345.3z
				 M109.1,299.9l41.5-41l16.6,56.3L109.1,299.9z M327.7,215.6l56.5,14.6l-42.4,41.4L327.7,215.6z M281.1,127.9l-41,41.7l56.3,16.6
				L281.1,127.9z M166.6,242.5l23.1,79.9l79.2,21.5l54.1-51.7l-19.6-83.6l-81.8-22.4L166.6,242.5z"/>
		</g>
	</g>
</g>
</svg>
