<?xml version="1.0" encoding="utf-8"?>
<!-- Generator: Adobe Illustrator 25.4.1, SVG Export Plug-In . SVG Version: 6.00 Build 0)  -->
<svg version="1.1" id="flag-icons-lb" xmlns="http://www.w3.org/2000/svg" xmlns:xlink="http://www.w3.org/1999/xlink" x="0px"
	 y="0px" viewBox="0 0 512 512" style="enable-background:new 0 0 512 512;" xml:space="preserve">
<style type="text/css">
	.st0{clip-path:url(#SVGID_00000067237479378981548090000018120660027128492456_);}
	.st1{fill-rule:evenodd;clip-rule:evenodd;fill:#EE161F;}
	.st2{fill-rule:evenodd;clip-rule:evenodd;fill:#FFFFFF;}
	.st3{fill:#00A850;}
	
		.st4{fill-rule:evenodd;clip-rule:evenodd;fill:#FFFFFF;stroke:#FFFFFF;stroke-width:3.1995;stroke-linecap:round;stroke-linejoin:round;stroke-miterlimit:4.1284;}
</style>
<g>
	<defs>
		
			<rect id="SVGID_1_" x="-108.2" y="-108.2" transform="matrix(0.7071 -0.7071 0.7071 0.7071 -106.0282 255.9469)" width="728.3" height="728.3"/>
	</defs>
	<clipPath id="SVGID_00000082345001687521708510000006003247216684580543_">
		<use xlink:href="#SVGID_1_"  style="overflow:visible;"/>
	</clipPath>
	<g transform="translate(-128)scale(1.0321)" style="clip-path:url(#SVGID_00000082345001687521708510000006003247216684580543_);">
		<g>
			<path class="st1" d="M122.5,747L871-1.5l124.8,124.8L247.2,871.8L122.5,747z M-251.8,372.8l748.5-748.5L621.5-251L-127,497.5
				L-251.8,372.8z"/>
			<path class="st2" d="M-127,497.5L621.5-251L871-1.5L122.5,747L-127,497.5z"/>
		</g>
		<path class="st3" d="M245.4,128.9c7.5,22.8,2.4,28-0.1,50.8c0,10.1-5.1,20.2,10.2,15.2c-5,15.1-7.6,22.7-2.6,38l5.1-0.1
			c0,0,4.8-14.3,7.5-12.6c3.7,0.3-2.9,22.4-3.4,25.6c-0.5,3.1-4.2,17.5-4.2,17.5c-2.5,22.8-12.7,28-5,50.7l22.8-27.9
			c22.7,12.7,7.5,32.9,2.5,53.2l-7.6,33c22.7,12.7,27.9-12.8,35.5-30.5h5l5,5l-12.6,37.9c0,0-12.9,47.1-12.8,48.2c0.8,1.2,5,5,5,5
			c12.8-7.5,30.5-20.2,35.5-35.5c7.6-17.7,5.2-25.4,20.4-40.5c-3.2,26.1-13.8,50.8-30.5,71.1l10.1,10.1
			c15.3-15.3,25.5-25.5,35.6-40.6l22.9-43.1c7.5-7.5,22.7-7.6,27.8,2.4c20.2,35.5-15.2,60.9-2.6,94l25.5-55.8
			c5.1-15.2,10.2-30.5,25.4-40.6c20.2-10.2,30.4,0,55.7-15.3l-17.6-7.5c7.5-2.5,12.6-7.5,20.2-10.2c17.7-7.6,25.3-5.1,38-22.9
			c-27.8-2.4-27.9,2.7-48.1,2.6c-25.4-5-53.3-22.7-40.5-40.5l22.7-12.7c20.4-15.2,15.3-20.3,50.8-35.5c20.2-10.2,33-7.6,45.6-30.5
			c-25.3-10.2-65.9,5.1-88.7,17.9c7.6-33,20.3-10.3,40.7-45.8l-5-5c-35.6,5-55.9,0-83.9,28l38.2-48.3l-5-5c0,0-53.9,31.6-55.3,32.2
			c-1.5-2.6-1.7-5.8-0.3-8.6c13.3-2.8,37.1-27.9,38.4-29.4c-6.9-5.5-23.6,0.9-38.8,6c0,0-70.3,16.6-72.8,14.5
			c-6-7.6,18.8-16.8,42.4-29.7c-15.1-5-30.4,0-43.1,7.6l12.7-17.7c-32.9-12.8-55.8,15.2-81.2,20.2c-17.7,2.6-22.8-2.5-45.6,5.1
			L245.4,128.9z"/>
		<path class="st4" d="M386.7,325.1c-4.1-7.9-7-15.7-23.4-9.6s26.3,15,23.5,9.5L386.7,325.1z M388,299.6c-2,2.6,5.2,12.1,11.9,9.9
			C405.8,305.1,390.1,297.7,388,299.6 M400.3,285.5c-1.6,3,10.1,14.9,16.2,4.5c6.3-10.4-11.3-11.3-16.1-4.4L400.3,285.5z
			 M385.7,240.2c-1-4.6-14.7-14.5-16.9-2.4C366.7,249.9,384.3,243.2,385.7,240.2 M360.3,246c1.4-3-5.6-10.5-9.9-2.2
			C346,251.8,360.2,249.1,360.3,246 M349.2,263c0,0-10.4-1.7-12.6,2.9C336.4,274.2,349.6,262.8,349.2,263 M320.1,330.5
			c2-1.6,13.4-17.8,12.8-27.9c-0.5-10.2-22.2,26.7-22.1,26.8c0.1,0.1,7.4,2,9.3,1.2L320.1,330.5z M423.6,159
			c-0.6-2-14.4,0.3-16.8,7.3C409.8,171.7,424.4,159.8,423.6,159 M382.9,172.3c-0.6-3.6-14.6-7.5-19.4,7.3
			C358.6,194.6,383.4,178.9,382.9,172.3 M346.3,198.4c0,0-5.6-10.5,2-14.9C360.1,182,346.9,198.4,346.3,198.4 M334.5,198.2
			c-3.2-1.2-8,6.2-10.5,18.1C321.5,228.1,341.7,201.2,334.5,198.2 M331.1,158.6c0,0,3.5-9.4,8.4-8.4c6.8,1.6-8.4,8.4-8.2,8.2
			L331.1,158.6z M323,161c-3.8-1.2-11.2,5.5-7.1,9.2c1.6,4,11.4-6.7,7-9.1L323,161z M306.2,177.8c-2.2-0.8-10.7,10.7-7.6,19.7
			C305.7,195,312.2,179.4,306.2,177.8 M290.9,205.3c0,0-5,21.1,0,28c5.4,4.6,7.1-25.7,7.1-25.7S293.8,200.6,290.9,205.3 M269,212.6
			c-1.2-2,1.1-12,2-12.1C273.1,201.6,272,211.6,269,212.6 M304,239.1c-2-2.6-17.8,13.6-4.5,14.8c11.2,1.1,6.7-14.8,4.6-14.7
			L304,239.1z M299.9,264.4c-2.4-0.8-7.9-3.9-10.6-2.1c-1.7,1.7-9.4,13.4-8.6,15.6c0.9,1.7,13.3,5.2,14.9,4
			C298,280.8,300.4,265.5,299.9,264.4 M439.7,232c-1.2-2.2,9.5-24.1,20.4-24.4C475.8,210,442.1,235.2,439.7,232 M495.2,197.8
			c-2.5-9.6-24.3-2.2-23.4,10.8C482.1,214.8,497.3,205.6,495.2,197.8"/>
	</g>
</g>
</svg>
