<?xml version="1.0" encoding="utf-8"?>
<!-- Generator: Adobe Illustrator 25.4.1, SVG Export Plug-In . SVG Version: 6.00 Build 0)  -->
<svg version="1.1" id="flag-icons-pt" xmlns="http://www.w3.org/2000/svg" xmlns:xlink="http://www.w3.org/1999/xlink" x="0px"
	 y="0px" viewBox="0 0 512 512" style="enable-background:new 0 0 512 512;" xml:space="preserve">
<style type="text/css">
	.st0{fill:#FF0000;}
	.st1{fill:#006600;}
	
		.st2{fill-rule:evenodd;clip-rule:evenodd;fill:#FFFF00;stroke:#000000;stroke-width:0.7;stroke-linecap:round;stroke-linejoin:round;}
	
		.st3{fill-rule:evenodd;clip-rule:evenodd;fill:#FFFF00;stroke:#000000;stroke-width:0.6;stroke-linecap:round;stroke-linejoin:round;}
	.st4{fill:#FFFFFF;stroke:#000000;stroke-width:0.7964;stroke-miterlimit:4.5511;}
	.st5{fill:#FF0000;stroke:#000000;stroke-width:0.5689;stroke-miterlimit:4.5511;}
	.st6{fill:#FFFF00;}
	.st7{fill:#FFFF00;stroke:#000000;stroke-width:0.5689;stroke-miterlimit:4.5511;}
	.st8{fill:#000001;}
	.st9{fill:#003399;}
	.st10{fill:#FFFFFF;}
</style>
<path class="st0" d="M-54.4,49L256-261.3l517.3,517.3L462.8,566.4L-54.4,49z"/>
<path class="st1" d="M-261.3,255.9L-54.4,49l517.3,517.3l-207,207L-261.3,255.9z"/>
<g>
	<path class="st2" d="M365.5,289.1c-35.8,33.7-294.4,93.6-311.3,78.7l-6-23.3c38.7,7.2,298.2-59,310.8-78.4L365.5,289.1z"/>
	<path class="st2" d="M44.4,344.3c5.3,11.5,77.5-5.6,164-26.6c86.4-21.1,152.9-47.2,153.6-53.5l-1.4-4.4c0.4,1.6-0.9,3.5-4,5.3
		c-18.8,10.3-74.1,30.8-149.3,49.3s-142.4,33-159.7,28.2c-1.5-0.5-2.9-1.4-4-2.6l-0.2,0.2l1,3.6L44.4,344.3z M366.7,288.7
		c0.5,1.7-0.6,2.8-2.7,4.7c-14.5,11.5-73.2,31.8-147.6,50.4C129.5,365.7,55,380.9,52.3,368.3l-1.1-3.7l0.3-0.1
		c8.8,17.5,154.7-22.3,163.6-24.3c87-20.3,151.8-46.3,150.7-55.4L366.7,288.7z"/>
	<path class="st2" d="M169.1,272.1c34.4-35,72.8-82.3,87.7-116.8l-13.9-3.4c-6.6,22.7-44.3,71.1-83.1,111.4
		c-47.3,46.5-84.7,75.2-112.3,80.6l4.1,14.2C94.9,340.5,128.8,312.2,169.1,272.1"/>
	<path class="st2" d="M258.5,154c0.4,2.2-10.1,23.8-29.8,51.6c-17.8,24.1-37.4,46.8-58.6,67.9c-20.2,20.4-41.7,39.3-64.5,56.8
		c-28.7,20.8-47.1,28.3-53.7,31.1l-1.1-3.5c18.7-8.1,36.5-18.4,52.8-30.6c22.5-17.3,43.9-36.2,63.9-56.4c21-21,40.4-43.5,58.1-67.4
		c20.3-28.2,28.6-46.6,28.1-50.7L258.5,154z M244.9,149.9c-0.6,4.6-9,22.5-28.4,49.2c-17.1,22.8-35.7,44.3-55.9,64.4
		c-19.2,19.5-39.9,37.7-61.7,54.3c-26.6,20.5-44.6,27.4-50.6,30.2l-1-3.6c5.3-1.6,22.2-8.9,49.5-29.3c21.6-16.6,42.1-34.7,61.2-54.2
		c20-19.9,38.5-41.3,55.4-63.9c20-26.5,26.7-44.9,27.1-48.3L244.9,149.9z M96.8,428.1c32.9-9.9,86.2-51.4,131.5-96
		c40.9-40.9,87.9-100.6,97.2-131.1l-12.1-10.9c3.6,16-44.1,82.4-95.2,132.8s-106.1,89.5-131.8,95.1l10.3,10.3"/>
	<path class="st2" d="M324.2,197.5l2.7,2.7c0.6,6.7-12.7,30.9-32.5,58.2c-19.9,26.7-41.8,51.9-65.6,75.3
		c-27.7,27.7-51.7,47.7-71.5,62.2c-18.4,14.6-38.8,26.4-60.6,35l-3.2-3.2c17.5-3.5,50.7-26.7,61.7-34.7c19.6-14.3,43.4-34.4,71-61.9
		c29-29,50.2-54.3,65.3-74.8C306,236.9,323.7,206.4,324.2,197.5 M314.4,187.7l2.8,2.8c0.5,6.6-12.8,30.8-32.6,58.1
		c-19.9,26.7-41.8,51.9-65.6,75.3c-27.7,27.7-51.7,47.7-71.3,62.2c-18.4,14.6-38.9,26.4-60.8,35l-3.2-3.2
		c17.5-3.5,50.8-26.6,61.7-34.7c19.7-14.4,43.6-34.4,71.1-61.8c29-29,50.2-54.3,65.2-74.9C296.2,227.1,313.9,196.6,314.4,187.7
		 M273.3,377.3c-49.4,48.8-104.6,77.9-115.7,84.6l16.6,3.6c22.3-9,73.3-40.2,109.6-78.7s66-74.1,77.8-108.1l-3.9-17.3
		c-8.3,23-53.2,84.8-84.3,115.8"/>
	<path class="st3" d="M361.7,273.7c0.5,2.5,1,5,1.4,7.5c-7.7,15.3-16.4,30-26.1,44.1c-15.6,22.6-33.1,43.7-52.5,63
		c-44.2,42.9-88.3,70.1-112.3,79.6l-3.7-0.9l-0.1-0.7l3.1-1.3c40.8-20.5,78.2-47.3,110.7-79.4c20.3-20.1,38.1-42.7,51.5-61.8
		c20-30.1,26.4-43.9,27.8-48.8L361.7,273.7z M357.9,258.5l0.1-0.1c0.6,2,1.1,4,1.6,6.1c-3.7,7.8-14.9,28.2-34.6,54.4
		C312,336,304.6,347.4,275.2,378c-34.8,34-74,63.1-116.7,86.4l-3.7-1.3c42.7-24.3,82.3-53.7,117.9-87.6
		c26.9-28.1,36.6-41.8,49.4-58.9c22.7-30.8,31.7-48.7,34.5-54.1c-0.1,0-0.2-0.1-0.3-0.1L357.9,258.5z"/>
	<path class="st2" d="M303.7,203c32.5,32.1,45.1,77.8,44.6,104c-0.5,38.6-15.8,75.6-42.7,103.4c-32,33.2-84.1,42.6-101.6,41.6
		c-34.5-2.1-70.7-12.1-102.4-43c-33.3-37.4-44.1-75.8-40.8-112.8c3.5-35.5,19.3-68.6,44.7-93.6c26.4-25,69.1-42.4,114.9-38.1
		c29.9,2.8,53.6,14.6,83.7,38.6L303.7,203z M90.5,194.7c62.6-62.6,165.2-63.1,227.6-0.7c62.4,63.2,62.1,164.9-0.7,227.6
		c-62.6,62.6-164.7,62.8-227.2,0.3S27.9,257.4,90.5,194.7"/>
	<path class="st2" d="M90.4,194c62.6-62.6,165-62.5,227.6,0.1s62.7,165,0.1,227.6c-63,62.7-164.9,62.6-227.8-0.1
		c-62.6-63-62.6-164.7,0-227.7L90.4,194z M92.9,419.2c61.2,61.2,161.7,61,222.7,0s61.1-161.3-0.1-222.6s-161.5-61-222.5,0
		C31.9,258.2,31.9,357.6,92.9,419.2"/>
	<path class="st2" d="M100,203.4c57.1-57.1,151.1-57.2,208.4,0.1c57.4,57.4,57.2,151.3,0.1,208.4c-57.7,57.4-150.9,57.4-208.6,0.1
		c-57.3-57.3-57.2-151.3,0-208.5L100,203.4z M102.4,409.5c56,56,147.7,55.8,203.6-0.1c55.8-55.8,56-147.5,0-203.5
		s-147.7-55.8-203.6,0.1S46.5,353.5,102.4,409.5"/>
	<path class="st2" d="M94.7,189l-9.8,9.8l228.7,228.7l9.8-9.8L94.7,189z"/>
	<path class="st2" d="M92.3,188.7l2.5-2.5l231.4,231.4l-2.5,2.5L92.3,188.7z M82.6,198.4l2.5-2.5l231.4,231.4l-2.5,2.5L82.6,198.4z"
		/>
	<path class="st2" d="M322.6,198.5l-8.6-8.6l-13.2,0.5l-49.5,28.7l-62.1,50.6l-64.3,71.1L88,400.7l-2.4,17l8.4,8.4l13.5-35.8
		l49.5-67.7l56.4-56.4l46-36.9l35.7-21.7L322.6,198.5z"/>
	<path class="st2" d="M186.7,290.3c24.6-24.8,51.5-47.3,80.2-67.1c25.6-17.1,46-26.8,57-25.9l3,3c-13.5-1.4-39.2,13.3-58.1,25.8
		c-24.4,16.6-52.9,40-79.6,66.7c-28.3,28.3-51.8,57.3-68.1,81.4c-12.9,19.4-28.2,47.4-24.6,56.5l-3-3c-2.9-6,6.6-28.6,24.7-55.8
		C138.5,342.7,161.4,315.3,186.7,290.3 M176.9,280.5c24.6-24.8,51.5-47.3,80.3-67.2c25.5-17,46-26.8,57.1-25.8l2.9,2.9
		c-13.6-1.3-39.4,13.5-58.1,26c-24.6,16.5-53,39.9-79.7,66.6c-25.1,24.9-47.8,52.1-67.9,81.2c-12.6,18.7-28.5,47.9-24.8,56.7l-3-3
		c-2.8-5.9,6.9-29.1,24.8-55.7C128.7,332.9,151.6,305.6,176.9,280.5 M126.6,231.2c42.1-42.5,85.3-73.3,110.8-81.5l16.8,4.4
		c-22.5,6.8-70.7,38.4-117.2,87.5c-38.7,39.1-76.2,84.7-86,116.7l-5-19.7C54.3,312.5,90.3,267.7,126.6,231.2"/>
	<path class="st2" d="M135.9,239.5c24.2-24.2,48.8-46.2,70.7-61.4c20.5-14,41.9-25.8,46.9-25.5l5.1,1.4c-9.5,2-28,12-49.8,27
		c-25.2,18.3-48.7,38.7-70.2,61.1c-27.3,27.3-47.2,49.8-62.1,71.2c-15.7,22.7-23.8,41.2-24.8,47l-1.5-5.2c3-9.7,9.3-23.8,23.3-43.9
		C88.8,289,109.1,266.7,135.9,239.5 M126.2,229.8c21-21.7,43.8-41.5,68.2-59.3c16.8-11.3,34.9-20.9,43.7-22.3l6.9,1.6
		c-9.6-0.5-31.4,11.8-49.2,24.3c-20.6,14.5-43.7,35.3-67.1,58.2c-24.2,24.2-45.2,48.2-59.4,68.7C56,320.8,49,335.3,47.4,342.7
		l-1.3-6c3-9.5,10.1-22.6,20.3-37.9C80.7,278.3,101.8,254.1,126.2,229.8 M308.1,298.6c-21.9,15.5-42.3,33-60.8,52.3
		c-69.8,71.4-78.9,107.8-77.6,114.8l-13.8-3.3c4.8-30.9,36-76.6,82.1-121.3c23.9-23.1,45.9-41.8,66.3-55.8l3.7,13.4"/>
	<path class="st3" d="M245.7,350.1c19.9-19.3,39.9-37.9,62.1-53l1,3.8c-21.7,15.3-41.9,32.6-60.4,51.7
		c-26.3,25.9-50.3,54.8-66.6,84.2c-5.3,9.3-12.5,25.9-10,31l-3.5-0.9c-1.8-2.6,0.7-14.6,10.5-31.9c18.7-33.8,42-59.6,66.7-84.9
		L245.7,350.1z M236.7,339.3c20.7-20.7,43.1-39.6,67.1-56.4l1.1,3.9c-23.5,16.2-45.4,34.6-65.5,55c-26.2,26.2-51.9,55.8-69.9,88.3
		c-5.7,10.5-14.8,29.7-11.1,34.1l-3.6-1c-3.3-3.9,3.9-20.9,11.7-35.2C185.6,395.4,209.3,365.5,236.7,339.3"/>
	<path class="st2" d="M359.4,261.5l4.6,21.6l-46,2.7l-105.7,20.8l-110.4,32l-49.7,24.4l-6.8-22.5l1.3-4.1l28.8-17.3l114.9-36.7
		l71.3-16.2l62.9-10.4l32.2,2.3L359.4,261.5z"/>
	<path class="st2" d="M51.2,364.8c2.2-10.9,71.1-37.4,151-57.1c80-19.6,161.7-33.1,163.9-22.4l0.7,3.5l-0.2,1.2
		c0.2-0.2-0.1-1.9-3.3-3.3c-9.2-4.7-69.7,2-159.6,24.2c-87.1,22-152.2,47.9-151,58.1L51.2,364.8z M360.9,259.6
		c-4-12.1-81.5-1.3-168.8,21.1c-87.9,24.2-147.1,46.1-148.9,59l1.4,4.6c0.1,0.1-0.2-0.2-0.1-0.9c0.2-2.4,2.5-4.5,3.5-5.6
		c12.8-12.6,65.9-32.3,146.1-54c35.3-9.4,153.6-35.2,166.2-21.9c1.1,1.1,1.4,1.2,1.6,2.2L360.9,259.6z"/>
</g>
<g transform="translate(-68.3 28.4)scale(1.13778)">
	<path class="st4" d="M190.6,316.6c15.9,15.8,37.4,24.6,59.8,24.4c22.5,0.2,44.1-8.6,60-24.4c15.9-15.9,24.9-37.5,24.9-60
		c0.1-22.4-8.8-43.9-24.7-59.8l-80-80L110.5,236.5L190.6,316.6z"/>
	<path class="st5" d="M193.1,314.3c15.2,15.2,35.9,23.6,57.4,23.4c21.6,0.1,42.3-8.4,57.6-23.6c15.2-15.2,23.8-35.9,23.8-57.4
		c0.1-21.5-8.4-42.1-23.5-57.3l-77.8-77.8L115.5,236.7L193.1,314.3 M230.8,168.1l49.4,49.4l5.1,5.3c9.2,9.1,14.3,21.5,14.1,34.4
		c0,12.9-5.1,25.2-14.1,34.4c-9.5,9.5-21.9,13.8-34.5,13.8c-12.9,0-25.2-5.1-34.4-14.1l-54.6-54.6L230.8,168.1z"/>
	<g id="pt-e">
		<g id="pt-d">
			<path class="st6" d="M143.1,249.7c-5.5-5.7-2.8-10.9-2.8-10.9c0.1-0.1,5.8-2.9,11.3,2.6L143.1,249.7z"/>
			<path class="st7" d="M132.9,246.4l5.7,7.1l4.2-4.2c-5.3-5.3-2-10.1-2-10.1c0.1-0.1,5.2-2.9,10.2,1.9l4.2-4.2l-7.3-5.7
				L132.9,246.4z M138.4,253.8l17.2-17.2c0.3-0.3,0.9-0.3,1.3,0.1c0.5,0.5,0.5,1.1,0.2,1.4l-17.2,17.2c-0.3,0.3-0.9,0.3-1.4-0.2
				c-0.4-0.4-0.4-1,0-1.4L138.4,253.8z"/>
			<path class="st7" d="M144.5,247.5c-3.3-3.3-1.9-6.6-1.9-6.6s3.3-1.3,6.6,1.9L144.5,247.5 M129.6,244.2l16.5-16.5
				c0.3-0.3,1-0.2,1.4,0.2c0.3,0.3,0.3,0.9,0,1.2L131,245.7c-0.3,0.3-0.9,0.3-1.3-0.1c-0.3-0.3-0.3-0.9,0-1.2L129.6,244.2z
				 M131.5,245.3l15.6-15.6c0.3-0.3,0.9-0.3,1.3,0.1c0.4,0.4,0.4,1,0.1,1.3l-15.7,15.7c-0.4,0.4-0.9,0.3-1.3-0.1
				c-0.4-0.4-0.5-0.9-0.1-1.3L131.5,245.3z M125.8,229.6l1.2-1.2l0.8,0.8l0.9-0.9l-0.8-0.8l1.3-1.3l0.9,0.9l0.9-0.9l-1-1l1.2-1.2
				l2,2c0.4,0.4,0.4,0.8,0.1,1.1l-4.4,4.4c-0.3,0.3-0.8,0.4-1.1,0.1L125.8,229.6z M133.2,227.7l6.8,6.2l-4.3,4.3l-6.3-6.9l3.7-3.7"
				/>
			<path id="pt-a" class="st7" d="M131,236l3.4,3.4l-4,4l-3.4-3.4L131,236z"/>
			<g>
				<path id="pt-a_00000062903071807686496010000011007475517387722923_" class="st7" d="M141.7,225.2l3.4,3.4l-4,4l-3.4-3.4
					L141.7,225.2z"/>
			</g>
			<path id="pt-b" class="st7" d="M123.6,238.1l1.2-1.2l1,1l0.9-0.9l-1-1l1.2-1.2l1,1l0.9-0.9l-1-1l1.2-1.2l2,2
				c0.4,0.4,0.4,0.8,0.1,1.1l-4.3,4.3c-0.3,0.3-0.9,0.3-1.2,0l0,0L123.6,238.1z"/>
			<g>
				<path id="pt-b_00000043434409549336831270000009706356127568591015_" class="st7" d="M134.3,227.4l1.2-1.2l1,1l0.9-0.9l-1-1
					l1.2-1.2l1,1l0.9-0.9l-1-1l1.2-1.2l2,2c0.4,0.4,0.4,0.8,0.1,1.1l-4.3,4.3c-0.3,0.3-0.9,0.3-1.2,0l0,0L134.3,227.4z"/>
			</g>
			<path class="st8" d="M132.9,232c-0.6-0.6,0.3-1.5,0.9-0.9l1.6,1.6l-0.9,0.9L132.9,232z"/>
			<path id="pt-c" class="st8" d="M129.8,239.6c-0.6-0.6,0.2-1.4,0.8-0.8l1.2,1.2l-0.8,0.8L129.8,239.6z"/>
			<g>
				<path id="pt-c_00000101799698274034185710000001801380597640805508_" class="st8" d="M140.5,228.9c-0.6-0.6,0.2-1.4,0.8-0.8
					l1.2,1.2l-0.8,0.8L140.5,228.9z"/>
			</g>
		</g>
		<g>
			<g id="pt-d_00000072976252712528769380000014824886307553174929_">
				<path class="st6" d="M189.9,296.5c-5.5-5.7-2.8-10.9-2.8-10.9c0.1-0.1,5.8-2.9,11.3,2.6L189.9,296.5z"/>
				<path class="st7" d="M179.7,293.1l5.7,7.1l4.2-4.2c-5.3-5.3-2-10.1-2-10.1c0.1-0.1,5.2-2.9,10.2,1.9l4.2-4.2l-7.3-5.7
					L179.7,293.1z M185.1,300.6l17.2-17.2c0.3-0.3,0.9-0.3,1.3,0.1c0.5,0.5,0.5,1.1,0.2,1.4l-17.2,17.2c-0.3,0.3-0.9,0.3-1.4-0.2
					c-0.4-0.4-0.4-1,0-1.4L185.1,300.6z"/>
				<path class="st7" d="M191.3,294.2c-3.3-3.3-1.9-6.6-1.9-6.6s3.3-1.3,6.6,1.9L191.3,294.2 M176.4,291l16.5-16.5
					c0.3-0.3,1-0.2,1.4,0.2c0.3,0.3,0.3,0.9,0,1.2l-16.5,16.5c-0.3,0.3-0.9,0.3-1.3-0.1c-0.3-0.3-0.3-0.9,0-1.2L176.4,291z
					 M178.3,292.1l15.6-15.6c0.3-0.3,0.9-0.3,1.3,0.1c0.4,0.4,0.4,1,0.1,1.3l-15.7,15.7c-0.4,0.4-0.9,0.3-1.3-0.1
					c-0.4-0.4-0.5-0.9-0.1-1.3L178.3,292.1z M172.6,276.4l1.2-1.2l0.8,0.8l0.9-0.9l-0.8-0.8l1.3-1.3l0.9,0.9l0.9-0.9l-1-1l1.2-1.2
					l2,2c0.4,0.4,0.4,0.8,0.1,1.1l-4.4,4.4c-0.3,0.3-0.8,0.4-1.1,0.1L172.6,276.4z M180,274.4l6.8,6.2l-4.3,4.3l-6.3-6.9l3.7-3.7"/>
				<path id="pt-a_00000149379813946681243910000018259746994750477247_" class="st7" d="M177.8,282.7l3.4,3.4l-4,4l-3.4-3.4
					L177.8,282.7z"/>
				<g>
					<path id="pt-a_00000023244303088839500760000017263271660776959629_" class="st7" d="M188.5,272l3.4,3.4l-4,4l-3.4-3.4
						L188.5,272z"/>
				</g>
				<path id="pt-b_00000098939345341299937940000008711152022538794115_" class="st7" d="M170.4,284.9l1.2-1.2l1,1l0.9-0.9l-1-1
					l1.2-1.2l1,1l0.9-0.9l-1-1l1.2-1.2l2,2c0.4,0.4,0.4,0.8,0.1,1.1l-4.3,4.3c-0.3,0.3-0.9,0.3-1.2,0l0,0L170.4,284.9z"/>
				<g>
					<path id="pt-b_00000133487814523855767100000002415518135818672044_" class="st7" d="M181.1,274.1l1.2-1.2l1,1l0.9-0.9l-1-1
						l1.2-1.2l1,1l0.9-0.9l-1-1l1.2-1.2l2,2c0.4,0.4,0.4,0.8,0.1,1.1l-4.3,4.3c-0.3,0.3-0.9,0.3-1.2,0l0,0L181.1,274.1z"/>
				</g>
				<path class="st8" d="M179.7,278.8c-0.6-0.6,0.3-1.5,0.9-0.9l1.6,1.6l-0.9,0.9L179.7,278.8z"/>
				<path id="pt-c_00000143595066952968867520000007830460870540746886_" class="st8" d="M176.6,286.4c-0.6-0.6,0.2-1.4,0.8-0.8
					l1.2,1.2l-0.8,0.8L176.6,286.4z"/>
				<g>
					<path id="pt-c_00000005226142584617238100000005039081628884096188_" class="st8" d="M187.3,275.7c-0.6-0.6,0.2-1.4,0.8-0.8
						l1.2,1.2l-0.8,0.8L187.3,275.7z"/>
				</g>
			</g>
		</g>
		<g transform="rotate(-45.2 312.8 180)">
			<g id="pt-d_00000098196444901797069030000000989899088276806273_">
				<path class="st6" d="M256.9,327c-7.9-0.1-9.7-5.7-9.7-5.7c0-0.1,2-6.2,9.8-6.2L256.9,327z"/>
				<path class="st7" d="M247.3,331.9l9,1l0-6c-7.4,0-8.6-5.7-8.6-5.7c0-0.1,1.6-5.7,8.6-5.9l0-6l-9.1,1.2L247.3,331.9z
					 M256.5,333.3l-0.1-24.3c0-0.4,0.4-0.9,1-0.9c0.7,0,1.1,0.4,1.1,0.9l0.1,24.3c0,0.4-0.4,0.9-1.1,0.9c-0.6,0-1-0.4-1-1
					L256.5,333.3z"/>
				<path class="st7" d="M256.3,324.4c-4.7,0-6-3.3-6-3.3s1.4-3.3,6-3.3L256.3,324.4 M243.5,332.8l-0.1-23.3c0-0.4,0.6-0.9,1.1-0.9
					c0.4,0,0.9,0.4,0.9,0.9l0.1,23.3c0,0.4-0.4,0.9-1,0.9c-0.4,0-0.9-0.4-0.9-0.9L243.5,332.8z M245.6,332.2l-0.1-22
					c0-0.4,0.4-0.9,1-0.9c0.6,0,1,0.4,1,0.9l0.1,22.1c0,0.6-0.4,0.9-1,0.9c-0.6,0-1-0.3-1-0.9L245.6,332.2z M230.4,325.1l0-1.7
					l1.1,0l0-1.3l-1.1,0l0-1.9l1.3,0l0-1.3l-1.4,0l0-1.7l2.9,0c0.6,0,0.9,0.3,0.9,0.7l0,6.3c0,0.4-0.3,0.9-0.7,0.9L230.4,325.1z
					 M234.3,318.5l9.1-0.5l0,6.1l-9.3-0.4l0-5.3"/>
				<path id="pt-a_00000103238225166803850710000007976225671856565682_" class="st7" d="M238.6,325.9l4.9,0l0,5.7l-4.9,0
					L238.6,325.9z"/>
				<g>
					<path id="pt-a_00000021111379274923855990000006312972363635266999_" class="st7" d="M238.5,310.8l4.9,0l0,5.7l-4.9,0
						L238.5,310.8z"/>
				</g>
				<path id="pt-b_00000116211929759499270480000011693926609439296899_" class="st7" d="M234.9,332.6l0-1.7l1.4,0l0-1.3l-1.4,0
					l0-1.7l1.4,0l0-1.3l-1.4,0l0-1.7l2.9,0c0.6,0,0.9,0.3,0.9,0.7l0,6.1c0,0.5-0.4,0.9-0.9,0.9h0L234.9,332.6z"/>
				<g>
					<path id="pt-b_00000019662844747207140660000001056721423498465681_" class="st7" d="M234.8,317.5l0-1.7l1.4,0l0-1.3l-1.4,0
						l0-1.7l1.4,0l0-1.3l-1.4,0l0-1.7l2.9,0c0.6,0,0.9,0.3,0.9,0.7l0,6.1c0,0.5-0.4,0.9-0.9,0.9h0L234.8,317.5z"/>
				</g>
				<path class="st8" d="M237.1,321.8c-0.9,0-0.9-1.3,0-1.3l2.3,0l0,1.3L237.1,321.8z"/>
				<path id="pt-c_00000168098015954996219530000000597922899992797834_" class="st8" d="M240.3,329.3c-0.9,0-0.9-1.1,0-1.1l1.7,0
					l0,1.1L240.3,329.3z"/>
				<g>
					<path id="pt-c_00000124155529625094286130000000545228095984891800_" class="st8" d="M240.3,314.2c-0.9,0-0.9-1.1,0-1.1l1.7,0
						l0,1.1L240.3,314.2z"/>
				</g>
			</g>
		</g>
	</g>
	<g>
		<g id="pt-d_00000024701297996043335870000000522296351047749008_">
			<path class="st6" d="M189.3,203.5c-5.5-5.7-2.8-10.9-2.8-10.9c0.1-0.1,5.8-2.9,11.3,2.6L189.3,203.5z"/>
			<path class="st7" d="M179.1,200.2l5.7,7.1l4.2-4.2c-5.3-5.3-2-10.1-2-10.1c0.1-0.1,5.2-2.9,10.2,1.9l4.2-4.2l-7.3-5.7
				L179.1,200.2z M184.5,207.7l17.2-17.2c0.3-0.3,0.9-0.3,1.3,0.1c0.5,0.5,0.5,1.1,0.2,1.4l-17.2,17.2c-0.3,0.3-0.9,0.3-1.4-0.2
				c-0.4-0.4-0.4-1,0-1.4L184.5,207.7z"/>
			<path class="st7" d="M190.7,201.3c-3.3-3.3-1.9-6.6-1.9-6.6s3.3-1.3,6.6,1.9L190.7,201.3 M175.7,198.1l16.5-16.5
				c0.3-0.3,1-0.2,1.4,0.2c0.3,0.3,0.3,0.9,0,1.2l-16.5,16.5c-0.3,0.3-0.9,0.3-1.3-0.1c-0.3-0.3-0.3-0.9,0-1.2L175.7,198.1z
				 M177.7,199.2l15.6-15.6c0.3-0.3,0.9-0.3,1.3,0.1s0.4,1,0.1,1.3L179,200.7c-0.4,0.4-0.9,0.3-1.3-0.1c-0.4-0.4-0.5-0.9-0.1-1.3
				L177.7,199.2z M172,183.4l1.2-1.2l0.8,0.8l0.9-0.9l-0.8-0.8l1.3-1.3l0.9,0.9l0.9-0.9l-1-1l1.2-1.2l2,2c0.4,0.4,0.4,0.8,0.1,1.1
				l-4.4,4.4c-0.3,0.3-0.8,0.4-1.1,0.1L172,183.4z M179.4,181.5l6.8,6.2l-4.3,4.3l-6.3-6.9l3.7-3.7"/>
			<path id="pt-a_00000034078054116854002720000011542059202475932063_" class="st7" d="M177.2,189.8l3.4,3.4l-4,4l-3.4-3.4
				L177.2,189.8z"/>
			<g>
				<path id="pt-a_00000147905974887255073800000005572087376386922672_" class="st7" d="M187.9,179.1l3.4,3.4l-4,4l-3.4-3.4
					L187.9,179.1z"/>
			</g>
			<path id="pt-b_00000173126876507552350700000003910875185041774250_" class="st7" d="M169.8,191.9l1.2-1.2l1,1l0.9-0.9l-1-1
				l1.2-1.2l1,1l0.9-0.9l-1-1l1.2-1.2l2,2c0.4,0.4,0.4,0.8,0.1,1.1l-4.3,4.3c-0.3,0.3-0.9,0.3-1.2,0l0,0L169.8,191.9z"/>
			<g>
				<path id="pt-b_00000009591152447019877490000014727145205222074255_" class="st7" d="M180.5,181.2l1.2-1.2l1,1l0.9-0.9l-1-1
					l1.2-1.2l1,1l0.9-0.9l-1-1l1.2-1.2l2,2c0.4,0.4,0.4,0.8,0.1,1.1l-4.3,4.3c-0.3,0.3-0.9,0.3-1.2,0l0,0L180.5,181.2z"/>
			</g>
			<path class="st8" d="M179.1,185.8c-0.6-0.6,0.3-1.5,0.9-0.9l1.6,1.6l-0.9,0.9L179.1,185.8z"/>
			<path id="pt-c_00000112620340811132268090000005685047127367591598_" class="st8" d="M175.9,193.4c-0.6-0.6,0.2-1.4,0.8-0.8
				l1.2,1.2l-0.8,0.8L175.9,193.4z"/>
			<g>
				<path id="pt-c_00000140725748834432712030000007710904853785478802_" class="st8" d="M186.7,182.7c-0.6-0.6,0.2-1.4,0.8-0.8
					l1.2,1.2l-0.8,0.8L186.7,182.7z"/>
			</g>
		</g>
	</g>
	<g transform="matrix(-1 0 0 1 479.8 0)">
		<g id="pt-e_00000098193458041692372510000000400022793130334877_">
			<g id="pt-d_00000011011917127658113940000015872807340454476951_">
				<path class="st6" d="M243.5,149.3c-5.7-5.5-10.9-2.8-10.9-2.8c-0.1,0.1-2.9,5.8,2.6,11.3L243.5,149.3z"/>
				<path class="st7" d="M240.2,139.1l7.1,5.7L243,149c-5.3-5.3-10.1-2-10.1-2c-0.1,0.1-2.9,5.2,1.9,10.2l-4.2,4.2l-5.7-7.3
					L240.2,139.1z M247.7,144.5l-17.2,17.2c-0.3,0.3-0.3,0.9,0.1,1.3c0.5,0.5,1.1,0.5,1.4,0.2l17.2-17.2c0.3-0.3,0.3-0.9-0.2-1.4
					c-0.4-0.4-1-0.4-1.4,0L247.7,144.5z"/>
				<path class="st7" d="M241.3,150.7c-3.3-3.3-6.6-1.9-6.6-1.9s-1.3,3.3,1.9,6.6L241.3,150.7 M238.1,135.7l-16.5,16.5
					c-0.3,0.3-0.2,1,0.2,1.4c0.3,0.3,0.9,0.3,1.2,0l16.5-16.5c0.3-0.3,0.3-0.9-0.1-1.3c-0.3-0.3-0.9-0.3-1.2,0L238.1,135.7z
					 M239.2,137.6l-15.6,15.6c-0.3,0.3-0.3,0.9,0.1,1.3c0.4,0.4,1,0.4,1.3,0.1l15.7-15.7c0.4-0.4,0.3-0.9-0.1-1.3
					c-0.4-0.4-0.9-0.5-1.3-0.1L239.2,137.6z M223.4,132l-1.2,1.2l0.8,0.8l-0.9,0.9l-0.8-0.8l-1.3,1.3l0.9,0.9l-0.9,0.9l-1-1
					l-1.2,1.2l2,2c0.4,0.4,0.8,0.4,1.1,0.1l4.4-4.4c0.3-0.3,0.4-0.8,0.1-1.1L223.4,132z M221.5,139.4l6.2,6.8l4.3-4.3l-6.9-6.3
					l-3.7,3.7"/>
				<path id="pt-a_00000143576473873768564950000002363756130890241152_" class="st7" d="M229.8,137.1l3.4,3.4l4-4l-3.4-3.4
					L229.8,137.1z"/>
				<g>
					<path id="pt-a_00000054239056573964579790000012393627416783945878_" class="st7" d="M219.1,147.9l3.4,3.4l4-4l-3.4-3.4
						L219.1,147.9z"/>
				</g>
				<path id="pt-b_00000163032361261303785490000000434073017780373136_" class="st7" d="M231.9,129.8l-1.2,1.2l1,1l-0.9,0.9l-1-1
					l-1.2,1.2l1,1l-0.9,0.9l-1-1l-1.2,1.2l2,2c0.4,0.4,0.8,0.4,1.1,0.1l4.3-4.3c0.3-0.3,0.3-0.9,0-1.2l0,0L231.9,129.8z"/>
				<g>
					<path id="pt-b_00000071540360696128312040000010470911044072309401_" class="st7" d="M221.2,140.5l-1.2,1.2l1,1l-0.9,0.9l-1-1
						l-1.2,1.2l1,1l-0.9,0.9l-1-1l-1.2,1.2l2,2c0.4,0.4,0.8,0.4,1.1,0.1l4.3-4.3c0.3-0.3,0.3-0.9,0-1.2l0,0L221.2,140.5z"/>
				</g>
				<path class="st8" d="M225.9,139.1c-0.6-0.6-1.5,0.3-0.9,0.9l1.6,1.6l0.9-0.9L225.9,139.1z"/>
				<path id="pt-c_00000025402259191605898880000007224158774964708509_" class="st8" d="M233.4,135.9c-0.6-0.6-1.4,0.2-0.8,0.8
					l1.2,1.2l0.8-0.8L233.4,135.9z"/>
				<g>
					<path id="pt-c_00000049185515411083914310000002257154184064859290_" class="st8" d="M222.7,146.6c-0.6-0.6-1.4,0.2-0.8,0.8
						l1.2,1.2l0.8-0.8L222.7,146.6z"/>
				</g>
			</g>
			<g>
				<g id="pt-d_00000085231455191319345390000003390444450223039930_">
					<path class="st6" d="M290.3,196c-5.7-5.5-10.9-2.8-10.9-2.8c-0.1,0.1-2.9,5.8,2.6,11.3L290.3,196z"/>
					<path class="st7" d="M287,185.8l7.1,5.7l-4.2,4.2c-5.3-5.3-10.1-2-10.1-2c-0.1,0.1-2.9,5.2,1.9,10.2l-4.2,4.2l-5.7-7.3
						L287,185.8z M294.5,191.3l-17.2,17.2c-0.3,0.3-0.3,0.9,0.1,1.3c0.5,0.5,1.1,0.5,1.4,0.2l17.2-17.2c0.3-0.3,0.3-0.9-0.2-1.4
						c-0.4-0.4-1-0.4-1.4,0L294.5,191.3z"/>
					<path class="st7" d="M288.1,197.5c-3.3-3.3-6.6-1.9-6.6-1.9s-1.3,3.3,1.9,6.6L288.1,197.5 M284.9,182.5L268.4,199
						c-0.3,0.3-0.2,1,0.2,1.4c0.3,0.3,0.9,0.3,1.2,0l16.5-16.5c0.3-0.3,0.3-0.9-0.1-1.3c-0.3-0.3-0.9-0.3-1.2,0L284.9,182.5z
						 M286,184.4L270.4,200c-0.3,0.3-0.3,0.9,0.1,1.3c0.4,0.4,1,0.4,1.3,0.1l15.7-15.7c0.4-0.4,0.3-0.9-0.1-1.3
						c-0.4-0.4-0.9-0.5-1.3-0.1L286,184.4z M270.2,178.8L269,180l0.8,0.8l-0.9,0.9l-0.8-0.8l-1.3,1.3l0.9,0.9l-0.9,0.9l-1-1
						l-1.2,1.2l2,2c0.4,0.4,0.8,0.4,1.1,0.1l4.4-4.4c0.3-0.3,0.4-0.8,0.1-1.1L270.2,178.8z M268.3,186.1l6.2,6.8l4.3-4.3l-6.9-6.3
						l-3.7,3.7"/>
					<path id="pt-a_00000131364682542877543530000012492536544899198134_" class="st7" d="M276.6,183.9l3.4,3.4l4-4l-3.4-3.4
						L276.6,183.9z"/>
					<g>
						<path id="pt-a_00000067949030034292511470000005146978973962888873_" class="st7" d="M265.9,194.6l3.4,3.4l4-4l-3.4-3.4
							L265.9,194.6z"/>
					</g>
					<path id="pt-b_00000049187825361853335060000015700472930636387972_" class="st7" d="M278.7,176.5l-1.2,1.2l1,1l-0.9,0.9l-1-1
						l-1.2,1.2l1,1l-0.9,0.9l-1-1l-1.2,1.2l2,2c0.4,0.4,0.8,0.4,1.1,0.1l4.3-4.3c0.3-0.3,0.3-0.9,0-1.2l0,0L278.7,176.5z"/>
					<g>
						<path id="pt-b_00000082349848436296975650000016348561493089949323_" class="st7" d="M268,187.3l-1.2,1.2l1,1l-0.9,0.9l-1-1
							l-1.2,1.2l1,1l-0.9,0.9l-1-1l-1.2,1.2l2,2c0.4,0.4,0.8,0.4,1.1,0.1l4.3-4.3c0.3-0.3,0.3-0.9,0-1.2v0L268,187.3z"/>
					</g>
					<path class="st8" d="M272.6,185.8c-0.6-0.6-1.5,0.3-0.9,0.9l1.6,1.6l0.9-0.9L272.6,185.8z"/>
					<path id="pt-c_00000171716381989507766350000001283434775788362125_" class="st8" d="M280.2,182.7c-0.6-0.6-1.4,0.2-0.8,0.8
						l1.2,1.2l0.8-0.8L280.2,182.7z"/>
					<g>
						<path id="pt-c_00000164475804885866389800000006875703367725119407_" class="st8" d="M269.5,193.4c-0.6-0.6-1.4,0.2-0.8,0.8
							l1.2,1.2l0.8-0.8L269.5,193.4z"/>
					</g>
				</g>
			</g>
			<g transform="rotate(-45.2 312.8 180)">
				<g id="pt-d_00000009564594863874005940000015691609585033893819_">
					<path class="st6" d="M320.8,263c-0.1-7.9-5.7-9.7-5.7-9.7c-0.1,0-6.2,2-6.2,9.8L320.8,263z"/>
					<path class="st7" d="M325.7,253.5l1,9l-6,0c0-7.4-5.7-8.6-5.7-8.6c-0.1,0-5.7,1.6-5.9,8.6l-6,0l1.2-9.1L325.7,253.5z
						 M327.1,262.6l-24.3-0.1c-0.4,0-0.9,0.4-0.9,1c0,0.7,0.4,1.1,0.9,1.1l24.3,0.1c0.4,0,0.9-0.4,0.9-1.1c0-0.6-0.4-1-1-1
						L327.1,262.6z"/>
					<path class="st7" d="M318.3,262.4c0-4.7-3.3-6-3.3-6s-3.3,1.4-3.3,6L318.3,262.4 M326.6,249.6l-23.3-0.1
						c-0.4,0-0.9,0.6-0.9,1.1c0,0.4,0.4,0.9,0.9,0.9l23.3,0.1c0.4,0,0.9-0.4,0.9-1c0-0.4-0.4-0.9-0.9-0.9L326.6,249.6z M326,251.8
						l-22-0.1c-0.4,0-0.9,0.4-0.9,1c0,0.6,0.4,1,0.9,1l22.1,0.1c0.6,0,0.9-0.4,0.9-1c0-0.6-0.3-1-0.9-1L326,251.8z M318.9,236.6
						l-1.7,0l0,1.1l-1.3,0l0-1.1l-1.9,0l0,1.3l-1.3,0l0-1.4l-1.7,0l0,2.9c0,0.6,0.3,0.9,0.7,0.9l6.3,0c0.4,0,0.9-0.3,0.9-0.7
						L318.9,236.6z M312.3,240.4l-0.5,9.1l6.1,0l-0.4-9.3l-5.3,0"/>
					<path id="pt-a_00000119097156570965238610000008264005296557752216_" class="st7" d="M319.8,244.7l0,4.9l5.7,0l0-4.9
						L319.8,244.7z"/>
					<g>
						<path id="pt-a_00000145750870601286280240000016594354155244993450_" class="st7" d="M304.6,244.7l0,4.9l5.7,0l0-4.9
							L304.6,244.7z"/>
					</g>
					<path id="pt-b_00000067945546755699266370000016765853563923012750_" class="st7" d="M326.5,241l-1.7,0l0,1.4l-1.3,0l0-1.4
						l-1.7,0l0,1.4l-1.3,0l0-1.4l-1.7,0l0,2.9c0,0.6,0.3,0.9,0.7,0.9l6.1,0c0.5,0,0.9-0.4,0.9-0.9v0L326.5,241z"/>
					<g>
						<path id="pt-b_00000097473756794374536090000009584791772026014596_" class="st7" d="M311.3,241l-1.7,0l0,1.4l-1.3,0l0-1.4
							l-1.7,0l0,1.4l-1.3,0l0-1.4l-1.7,0l0,2.9c0,0.6,0.3,0.9,0.7,0.9l6.1,0c0.5,0,0.9-0.4,0.9-0.9v0L311.3,241z"/>
					</g>
					<path class="st8" d="M315.6,243.3c0-0.9-1.3-0.9-1.3,0l0,2.3l1.3,0L315.6,243.3z"/>
					<path id="pt-c_00000018954572988242995280000004670757558549864100_" class="st8" d="M323.2,246.5c0-0.9-1.1-0.9-1.1,0l0,1.7
						l1.1,0L323.2,246.5z"/>
					<g>
						<path id="pt-c_00000139983713025032884920000002586387109991873929_" class="st8" d="M308,246.4c0-0.9-1.1-0.9-1.1,0l0,1.7
							l1.1,0L308,246.4z"/>
					</g>
				</g>
			</g>
		</g>
	</g>
	<g id="pt-f">
		<path class="st9" d="M234.4,255.4c2.1,2.2,5,3.4,8,3.5c2.9,0.2,5.7-0.9,7.8-2.9c2.1-2.1,3-5.1,2.9-7.8c-0.1-3-1.4-5.9-3.5-8
			l-10.9-10.9l-15.2,15.2L234.4,255.4z"/>
		<circle class="st10" cx="231.2" cy="245" r="2.1"/>
		<circle class="st10" cx="239.6" cy="236.7" r="2.1"/>
		<circle class="st10" cx="239.4" cy="244.9" r="2.1"/>
		<circle class="st10" cx="239.5" cy="253.3" r="2.1"/>
		<circle class="st10" cx="247.9" cy="244.9" r="2.1"/>
	</g>
	<g>
		<g id="pt-f_00000160158165994851586550000006930153984585905326_">
			<path class="st9" d="M208.2,229.1c2.1,2.2,5,3.4,8,3.5c2.9,0.2,5.7-0.9,7.8-2.9c2.1-2.1,3-5.1,2.9-7.8c-0.1-3-1.4-5.9-3.5-8
				L212.4,203l-15.2,15.2L208.2,229.1z"/>
			<circle class="st10" cx="204.9" cy="218.8" r="2.1"/>
			<circle class="st10" cx="213.3" cy="210.4" r="2.1"/>
			<circle class="st10" cx="213.1" cy="218.7" r="2.1"/>
			<circle class="st10" cx="213.2" cy="227.1" r="2.1"/>
			<circle class="st10" cx="221.6" cy="218.7" r="2.1"/>
		</g>
	</g>
	<g>
		<g id="pt-f_00000160902400492918915090000005142248359107884941_">
			<path class="st9" d="M213.4,276.4c2.1,2.2,5,3.4,8,3.5c2.9,0.2,5.7-0.9,7.8-2.9c2.1-2.1,3-5.1,2.9-7.8c-0.1-3-1.4-5.9-3.5-8
				l-10.9-10.9l-15.2,15.2L213.4,276.4z"/>
			<circle class="st10" cx="210.2" cy="266.1" r="2.1"/>
			<circle class="st10" cx="218.6" cy="257.7" r="2.1"/>
			<circle class="st10" cx="218.4" cy="266" r="2.1"/>
			<circle class="st10" cx="218.5" cy="274.3" r="2.1"/>
			<circle class="st10" cx="226.9" cy="266" r="2.1"/>
		</g>
	</g>
	<g>
		<g id="pt-f_00000155843575671913696760000011737266362524762302_">
			<path class="st9" d="M255.5,234.3c2.1,2.2,5,3.4,8,3.5c2.9,0.2,5.7-0.9,7.8-2.9c2.1-2.1,3-5.1,2.9-7.8c-0.1-3-1.4-5.9-3.5-8
				l-10.9-10.9l-15.2,15.2L255.5,234.3z"/>
			<circle class="st10" cx="252.2" cy="224" r="2.1"/>
			<circle class="st10" cx="260.6" cy="215.6" r="2.1"/>
			<circle class="st10" cx="260.4" cy="223.9" r="2.1"/>
			<circle class="st10" cx="260.5" cy="232.3" r="2.1"/>
			<circle class="st10" cx="268.9" cy="223.9" r="2.1"/>
		</g>
	</g>
	<g>
		<g id="pt-f_00000165201851997505463480000006261176322827160483_">
			<path class="st9" d="M260.5,281.4c2.1,2.2,5,3.4,8,3.5c2.9,0.2,5.7-0.9,7.8-2.9c2.1-2.1,3-5.1,2.9-7.8c-0.1-3-1.4-5.9-3.5-8
				l-10.9-10.9l-15.2,15.2L260.5,281.4z"/>
			<circle class="st10" cx="257.3" cy="271.1" r="2.1"/>
			<circle class="st10" cx="265.7" cy="262.7" r="2.1"/>
			<circle class="st10" cx="265.5" cy="271" r="2.1"/>
			<circle class="st10" cx="265.6" cy="279.4" r="2.1"/>
			<circle class="st10" cx="273.9" cy="271" r="2.1"/>
		</g>
	</g>
</g>
</svg>
