<?xml version="1.0" encoding="utf-8"?>
<!-- Generator: Adobe Illustrator 25.4.1, SVG Export Plug-In . SVG Version: 6.00 Build 0)  -->
<svg version="1.1" id="flag-icons-sg" xmlns="http://www.w3.org/2000/svg" xmlns:xlink="http://www.w3.org/1999/xlink" x="0px"
	 y="0px" viewBox="0 0 512 512" style="enable-background:new 0 0 512 512;" xml:space="preserve">
<style type="text/css">
	.st0{fill:none;}
	.st1{fill-rule:evenodd;clip-rule:evenodd;fill:#FFFFFF;}
	.st2{fill-rule:evenodd;clip-rule:evenodd;fill:#DF0000;}
</style>
<rect x="-112.9" y="-93" transform="matrix(0.7071 -0.7071 0.7071 0.7071 -82.445 170.8241)" class="st0" width="555.8" height="555.9"/>
<g transform="translate(-20)scale(.72249)">
	<path class="st1" d="M-324.8,451.2L798.8-672.4L1468.4-2.9L344.7,1120.8L-324.8,451.2z"/>
	<path class="st2" d="M-384.3,398L742.4-728.8l361.3,361.3L-23.1,759.2L-384.3,398z"/>
	<path class="st1" d="M146,82.5c-45.5,70.3-25.4,164.2,44.9,209.7c50.6,32.7,115.7,32.4,165.9-0.8c-41,74.8-134.8,102.3-209.6,61.3
		S44.9,218.1,85.9,143.2C99.9,117.7,120.7,96.7,146,82.5"/>
	<path class="st1" d="M197.5,208.3l-28.1,4.4l20-20.4l-13-25.3l25.7,12.8l20.1-20.1l-4.1,28.3l25.4,13l-28.3,4.6l-4.4,28.2
		L197.5,208.3z M286.1,252.1l-28.3,4.4l20-20.4L265,210.7l25.5,12.8l20.2-20.2l-4.3,28.4l25.5,12.9l-28.1,4.6l-4.4,28.3L286.1,252.1
		z M359.9,177.3l-28.3,4.4l20-20.3L338.6,136l25.6,12.8l20.3-20.3l-4.2,28.3l25.5,12.9l-28.3,4.6l-4.4,28.3L359.9,177.3z
		 M316.4,89.7l-28.3,4.4l20-20.4l-13-25.4L320.7,61l20.1-20.1l-4.1,28.3l25.4,13L334,86.8l-4.4,28.3L316.4,89.7z M214.2,104.9
		l-28.3,4.4l20-20.4l-12.8-25.4l25.6,12.8l20.2-20.2l-4.3,28.4L260,97.5l-28.1,4.6l-4.4,28.3L214.2,104.9z"/>
</g>
</svg>
