<?xml version="1.0" encoding="utf-8"?>
<!-- Generator: Adobe Illustrator 25.4.1, SVG Export Plug-In . SVG Version: 6.00 Build 0)  -->
<svg version="1.1" id="flag-icons-gb" xmlns="http://www.w3.org/2000/svg" xmlns:xlink="http://www.w3.org/1999/xlink" x="0px"
	 y="0px" viewBox="0 0 512 512" style="enable-background:new 0 0 512 512;" xml:space="preserve">
<style type="text/css">
	.st0{fill:#012169;}
	.st1{fill:#FFFFFF;}
	.st2{fill:#C8102E;}
</style>
<path class="st0" d="M-258.9,256L256-258.9L770.9,256L256,770.9L-258.9,256z"/>
<path class="st1" d="M256-258.9l64.4,64.4l2,384.1l379.1-3l69.4,69.4l-67.4,67.4l-381.1,3l2,376.1L256,770.9l-68.4-68.4l-1-375.1
	l-371.1,3l-74.4-74.4l62.3-62.3l382.1-4l-2-376.1L256-258.9z"/>
<path class="st2" d="M252,396.8l45.3,23.1l1,308.7L256,770.9l-3-3L252,396.8z M364.6,260l62.3-46.3l298.7-3l45.3,45.3L364.6,260z
	 M256-258.9l4,390.2l-48.3-40.2l-2-303.7L256-258.9z M-257.9,257l384.1-4l-67.4,51.3l-268.5,1L-257.9,257z"/>
<path class="st1" d="M-81.9,79L433,593.9L593.9,433L79-81.9L-81.9,79z M-81.9,433L79,593.9L593.9,79L433-81.9L-81.9,433z"/>
<path class="st2" d="M-49.7,465.2l96.5,96.5L561.7,46.8l-96.5-96.5L-49.7,465.2z M-49.7,46.8l514.9,514.9l96.5-96.5L46.8-49.7
	L-49.7,46.8z"/>
</svg>
