<?xml version="1.0" encoding="utf-8"?>
<!-- Generator: Adobe Illustrator 25.4.1, SVG Export Plug-In . SVG Version: 6.00 Build 0)  -->
<svg version="1.1" id="flag-icons-us" xmlns="http://www.w3.org/2000/svg" xmlns:xlink="http://www.w3.org/1999/xlink" x="0px"
	 y="0px" viewBox="0 0 512 512" style="enable-background:new 0 0 512 512;" xml:space="preserve">
<style type="text/css">
	.st0{fill:#BD3D44;}
	.st1{stroke:#FFFFFF;stroke-width:40;}
	.st2{fill:#192F5D;}
	.st3{fill:none;}
	.st4{fill:#FFFFFF;}
</style>
<g>
	<path class="st0" d="M-257,256l513-513l513,513L256,769"/>
	<path class="st1" d="M-198.9,314.1l513-513 M-119.7,393.3l513-513 M-40.6,472.4l513-513 M38.6,551.6l513-513 M117.7,630.7l513-513
		 M196.9,709.9l513-513"/>
	<path class="st2" d="M-257,256l390.8-390.8l275.5,275.5L18.5,531.5L-257,256z"/>
	<path class="st3" d="z"/>
	<path class="st4" d="M-212.9,234l38,19.3l-42,6.7l30.1-30.1l-6.7,42"/>
	<path class="st4" d="M-147.8,168.8l38,19.3l-42,6.7l30.1-30.1l-6.7,42"/>
	<path class="st4" d="M-82.7,103.7l38,19.3l-42,6.7l30.1-30.1l-6.7,42"/>
	<path class="st4" d="M-17.5,38.6l38,19.3l-42,6.7L8.5,34.6l-6.7,42"/>
	<path class="st4" d="M47.6-26.6l38,19.3l-42,6.7l30.1-30.1l-6.7,42"/>
	<path class="st4" d="M113.7-92.7l38,19.3l-42,6.7l30.1-30.1l-6.7,42"/>
	<path class="st4" d="M-151.8,228.9l38,19.3l-42,6.7l30.1-30.1l-6.7,42"/>
	<path class="st4" d="M-86.7,163.8l38,19.3l-42,6.7l30.1-30.1l-6.7,42"/>
	<path class="st4" d="M-21.5,98.7l38,19.3l-42,6.7L4.5,94.7l-6.7,42"/>
	<path class="st4" d="M43.6,33.6l38,19.3l-42,6.7l30.1-30.1l-6.7,42"/>
	<path class="st4" d="M108.7-31.6l38,19.3l-42,6.7l30.1-30.1l-6.7,42"/>
	<path class="st4" d="M-157.8,289.1l38,19.3l-42,6.7l30.1-30.1l-6.7,42"/>
	<path class="st4" d="M-92.7,223.9l38,19.3l-42,6.7l30.1-30.1l-6.7,42"/>
	<path class="st4" d="M-27.6,158.8l38,19.3l-42,6.7l30.1-30.1l-6.7,42"/>
	<path class="st4" d="M37.6,93.7l38,19.3l-42,6.7l30.1-30.1l-6.7,42"/>
	<path class="st4" d="M102.7,28.6l38,19.3l-42,6.7l30.1-30.1l-6.7,42"/>
	<path class="st4" d="M168.8-37.6l38,19.3l-42,6.7l30.1-30.1l-6.7,42"/>
	<path class="st4" d="M-96.7,284.1l38,19.3l-42,6.7l30.1-30.1l-6.7,42"/>
	<path class="st4" d="M-31.6,218.9l38,19.3l-42,6.7l30.1-30.1l-6.7,42"/>
	<path class="st4" d="M33.6,153.8l38,19.3l-42,6.7l30.1-30.1l-6.7,42"/>
	<path class="st4" d="M98.7,88.7l38,19.3l-42,6.7l30.1-30.1l-6.7,42"/>
	<path class="st4" d="M163.8,23.5l38,19.3l-42,6.7l30.1-30.1l-6.7,42"/>
	<path class="st4" d="M-102.7,344.2l38,19.3l-42,6.7l30.1-30.1l-6.7,42"/>
	<path class="st4" d="M-37.6,279l38,19.3l-42,6.7l30.1-30.1l-6.7,42"/>
	<path class="st4" d="M27.6,213.9l38,19.3l-42,6.7l30.1-30.1l-6.7,42"/>
	<path class="st4" d="M92.7,148.8l38,19.3l-42,6.7l30.1-30.1l-6.7,42"/>
	<path class="st4" d="M157.8,83.7l38,19.3l-42,6.7l30.1-30.1l-6.7,42"/>
	<path class="st4" d="M223.9,17.5l38,19.3l-42,6.7L250,13.5l-6.7,42"/>
	<path class="st4" d="M-41.6,339.2l38,19.3l-42,6.7l30.1-30.1l-6.7,42"/>
	<path class="st4" d="M23.5,274l38,19.3l-42,6.7L49.6,270l-6.7,42"/>
	<path class="st4" d="M88.7,208.9l38,19.3l-42,6.7l30.1-30.1l-6.7,42"/>
	<path class="st4" d="M153.8,143.8l38,19.3l-42,6.7l30.1-30.1l-6.7,42"/>
	<path class="st4" d="M218.9,78.7l38,19.3l-42,6.7L245,74.6l-6.7,42"/>
	<path class="st4" d="M-46.6,400.3l38,19.3l-42,6.7l30.1-30.1l-6.7,42"/>
	<path class="st4" d="M18.5,335.2l38,19.3l-42,6.7l30.1-30.1l-6.7,42"/>
	<path class="st4" d="M83.7,270l38,19.3l-42,6.7l30.1-30.1l-6.7,42"/>
	<path class="st4" d="M148.8,204.9l38,19.3l-42,6.7l30.1-30.1l-6.7,42"/>
	<path class="st4" d="M213.9,139.8l38,19.3l-42,6.7l30.1-30.1l-6.7,42"/>
	<path class="st4" d="M280,73.6L318,93l-42,6.7l30.1-30.1l-6.7,42"/>
	<path class="st4" d="M14.5,395.3l38,19.3l-42,6.7l30.1-30.1l-6.7,42"/>
	<path class="st4" d="M79.7,330.1l38,19.3l-42,6.7l30.1-30.1l-6.7,42"/>
	<path class="st4" d="M144.8,265l38,19.3l-42,6.7l30.1-30.1l-6.7,42"/>
	<path class="st4" d="M209.9,199.9l38,19.3l-42,6.7l30.1-30.1l-6.7,42"/>
	<path class="st4" d="M275,134.8l38,19.3l-42,6.7l30.1-30.1l-6.7,42"/>
	<path class="st4" d="M8.5,455.4l38,19.3l-42,6.7l30.1-30.1l-6.7,42"/>
	<path class="st4" d="M73.6,390.3l38,19.3l-42,6.7l30.1-30.1l-6.7,42"/>
	<path class="st4" d="M138.8,325.1l38,19.3l-42,6.7l30.1-30.1l-6.7,42"/>
	<path class="st4" d="M203.9,260l38,19.3l-42,6.7l30.1-30.1l-6.7,42"/>
	<path class="st4" d="M269,194.9l38,19.3l-42,6.7l30.1-30.1l-6.7,42"/>
	<path class="st4" d="M335.2,128.8l38,19.3l-42,6.7l30.1-30.1l-6.7,42"/>
	<path marker-mid="url(#us-a)" class="st4" d="M320.1,143.8"/>
</g>
</svg>
