<?xml version="1.0" encoding="utf-8"?>
<!-- Generator: Adobe Illustrator 26.1.0, SVG Export Plug-In . SVG Version: 6.00 Build 0)  -->
<svg version="1.1" id="Layer_1" xmlns="http://www.w3.org/2000/svg" xmlns:xlink="http://www.w3.org/1999/xlink" x="0px" y="0px"
	 viewBox="0 0 306.9 192" style="enable-background:new 0 0 306.9 192;" xml:space="preserve">
<style type="text/css">
	.st0{fill:#010101;}
</style>
<g>
	<path d="M178.3,191.9c-1.5-1.7-1.9-3.6-1.9-5.9c0.1-25.7,0.1-51.3,0-77c0-4.6,1.7-6.3,6.2-6c4.1,0.2,8.3,0.1,12.4,0
		c3.4-0.1,4.8,1.5,4.8,4.8c0,26.5,0,53,0,79.5c0,1.8-0.9,3.1-1.5,4.6C191.6,191.9,184.9,191.9,178.3,191.9z"/>
	<path d="M285.8,191.9c-0.9-1.9-1.3-3.9-1.3-6.1c0.1-25.3,0.1-50.6-0.1-76c0-4.8,1.7-6.6,6.4-6.3c3.6,0.2,7.3,0.2,10.9,0
		c2.3-0.1,4.2,0.5,5.9,1.9c0,27.7-0.1,55.3,0.1,83c0,3-0.6,3.7-3.6,3.6C298.1,191.7,292,191.9,285.8,191.9z"/>
	<path d="M307.7,22c-1.5,1.5-3.2,2-5.3,2c-17.9-0.1-35.8-0.1-53.7,0c-4.1,0-5.8-1.5-5.6-5.5c0.1-4.3,0.1-8.6,0-12.9
		c0-3.3,1.4-4.8,4.8-4.8c18.4,0.1,36.8,0.1,55.2,0c1.7,0,3.1,0.7,4.6,1.3C307.7,8.7,307.7,15.3,307.7,22z"/>
	<path d="M29.9,191.9c-2.9-6.7-1.2-13.6-1.2-20.4c0-2.3,2.1-2.7,4.1-2.7c18.4,0,36.8,0,55.2,0c1.8,0,3.8,0.3,3.9,2.3
		c0.4,7,2,14-1.2,20.8C70.4,191.9,50.2,191.9,29.9,191.9z"/>
	<path d="M2.1,191.9c-1.6-1.6-2-3.5-2-5.8c0.1-16.5,0.1-33.1,0-49.6c0-4.3,1.6-6.1,5.8-5.9c4.3,0.2,8.6,0,12.9,0
		c3,0,4.5,1.4,4.5,4.6c-0.1,17.4,0,34.7,0,52.1c0,1.7-0.7,3.1-1.3,4.6C15.3,191.9,8.7,191.9,2.1,191.9z"/>
	<path d="M109.6,191.9c-1.7-1.4-2.1-3.1-2.1-5.3c0.1-16.9,0.1-33.7,0-50.6c0-3.8,1.4-5.5,5.2-5.4c4.3,0.1,8.6,0.1,12.9,0
		c3.5,0,5.1,1.3,5.1,5c-0.1,17-0.1,34.1,0,51.1c0,1.9-0.8,3.4-1.2,5.1C122.9,191.9,116.2,191.9,109.6,191.9z"/>
	<path d="M228.1,191.9c-3.1-6.8-1.5-13.9-1.2-20.8c0.1-2,2.1-2.3,3.9-2.3c14.9,0,29.8,0,44.7,0c2.1,0,4.2,0.4,4.3,3
		c0.2,5.8,0.1,11.6,0,17.4c0,0.9-1.2,1.8-1.9,2.8C261.3,191.9,244.7,191.9,228.1,191.9z"/>
	<path d="M46.4,0.1c13.2,0,26.5,0.2,39.7-0.1c4.9-0.1,6.6,1.8,6.3,6.4c-0.2,4-0.1,7.9,0,11.9c0,3.1-1.2,4.9-4.7,4.9
		c-27.7,0-55.3,0-83,0c-3.4,0-4.8-1.5-4.7-4.8c0.1-4.3,0.2-8.6,0-12.9C-0.2,1.4,1.6,0,5.6,0C19.2,0.2,32.8,0.1,46.4,0.1z"/>
	<path d="M167.8,23.9c-9,0-17.9-0.1-26.9,0.1c-4.1,0.1-5.7-1.6-5.5-5.6c0.2-4.1,0.1-8.3,0-12.4c-0.1-3.5,1.2-5.2,4.9-5.2
		c18.2,0.1,36.5,0.1,54.7,0c3.6,0,5.1,1.5,5.1,5c-0.1,4.3-0.1,8.6,0,12.9c0.1,3.8-1.6,5.3-5.4,5.3C185.7,23.8,176.8,23.9,167.8,23.9
		z"/>
	<path d="M247,65.7c8.9,0,17.9,0.1,26.8-0.1c4.1-0.1,5.7,1.6,5.6,5.6c-0.2,4.5-0.1,8.9,0,13.4c0,2.8-1.4,4.3-4.3,4.3
		c-18.6,0-37.1,0-55.7,0c-3,0-4.6-1.3-4.5-4.5c0.1-4.3,0.2-8.6,0-12.9c-0.2-4.3,1.4-6,5.7-5.9C229.4,65.9,238.2,65.7,247,65.7z"/>
	<path d="M60.3,65.7c8.8,0,17.6,0.1,26.4-0.1c4.1-0.1,5.8,1.5,5.7,5.5c-0.1,4.3,0,8.6,0,12.9c0,3.3-1.5,4.8-4.8,4.8
		c-18.1,0-36.2,0-54.3,0c-3.3,0-4.9-1.4-4.8-4.8c0.1-4.3,0.1-8.6,0-12.9c-0.2-4,1.4-5.7,5.5-5.6C42.7,65.9,51.5,65.7,60.3,65.7z"/>
	<path d="M139.2,89c-8.8,0-17.6-0.1-26.3,0.1c-4.3,0.1-6-1.7-5.8-5.9c0.2-4.3,0.1-8.6,0.1-12.9c0-3,1.4-4.5,4.5-4.5
		c18.4,0,36.8,0,55.2,0c3.4,0,4.8,1.5,4.7,4.9c-0.1,4.5-0.1,8.9,0,13.4c0.1,3.7-1.5,5-5,5C157.4,88.9,148.3,89,139.2,89z"/>
	<path d="M31.9,103c8.9,0,17.9,0.1,26.8,0c3.8,0,5.4,1.5,5.2,5.3c-0.2,4.4-0.1,8.9,0,13.4c0.1,3.1-1.4,4.6-4.5,4.6
		c-18.2,0-36.4,0-54.6,0c-3.3,0-4.8-1.5-4.7-4.8c0.1-4.5,0.1-8.9,0-13.4c-0.1-3.7,1.5-5.1,5-5C14,103,22.9,103,31.9,103z"/>
	<path d="M139.2,126.2c-8.6,0-17.2-0.1-25.8,0.1c-4.1,0.1-6.2-1.2-5.9-5.7c0.2-4.3,0.1-8.6,0-12.9c-0.1-3.1,1.2-4.7,4.3-4.7
		c18.4,0,36.7,0,55.1,0c3.1,0,4.5,1.5,4.5,4.6c-0.1,4.5-0.1,8.9,0,13.4c0.1,3.8-1.6,5.3-5.3,5.3
		C157.1,126.1,148.1,126.2,139.2,126.2z"/>
	<path class="st0" d="M92.4,133.9c0,8.1-0.1,16.2,0.1,24.3c0.1,4.5-1.6,6.3-6.2,6c-4.1-0.3-8.3-0.2-12.4,0c-3.1,0.1-4.8-1.2-4.8-4.3
		c0-17.5,0-35.1,0-52.6c0-2.8,1.5-4.3,4.3-4.3c4.5,0,9,0.1,13.4-0.1c4-0.1,5.7,1.6,5.6,5.6C92.3,117,92.4,125.4,92.4,133.9z"/>
	<path d="M23.2,58.6c0,8.4-0.1,16.9,0,25.3c0.1,3.6-1.3,5.2-4.9,5.1c-4.5-0.1-9-0.1-13.4,0C1.7,89,0,87.7,0,84.2
		c0.1-17.2,0-34.4,0-51.6c0-3.3,1.3-4.9,4.7-4.8c4.5,0.1,9,0.2,13.4,0c3.6-0.1,5.1,1.3,5,4.9C23.1,41.4,23.2,50,23.2,58.6z"/>
	<path class="st0" d="M238.8,130.7c0,7.4-0.1,14.9,0,22.3c0,3.7-1.4,5.5-5.3,5.3c-4.3-0.2-8.6-0.2-12.9,0c-3.6,0.1-5.2-1.4-5.2-4.9
		c0-15.2,0-30.4,0-45.6c0-3.2,1.5-4.9,4.8-4.8c4.5,0.1,8.9,0.1,13.4,0c3.9-0.1,5.2,1.8,5.2,5.5C238.7,115.9,238.8,123.3,238.8,130.7
		z"/>
	<path d="M307,35.8c0,16.9-0.1,33.9-0.1,50.8c-0.8,2.1-2.6,2.3-4.5,2.3c-4.6,0-9.3,0-13.9,0c-3.4,0-4.7-1.7-4.6-4.9
		c0.1-15.4,0.1-30.8,0-46.2c0-3.2,1.2-5,4.7-4.9c4.6,0.1,9.3,0,13.9,0C304.6,32.9,306.4,33.3,307,35.8z"/>
	<path d="M176.2,60.9c0-7.6,0.1-15.2,0-22.8c-0.1-3.8,1.4-5.4,5.3-5.3c4.5,0.2,8.9,0.1,13.4,0c3.1,0,4.5,1.4,4.5,4.5
		c-0.1,15.7-0.1,31.4,0,47c0,3.2-1.5,4.5-4.5,4.5c-4.5,0-8.9-0.1-13.4,0c-3.7,0.1-5.4-1.4-5.3-5.3C176.4,76.1,176.2,68.5,176.2,60.9
		z"/>
	<path d="M130.4,27.9c0,7.4-0.1,14.9,0,22.3c0.1,3.8-1.6,5.4-5.4,5.3c-4.3-0.1-8.6-0.1-12.9,0c-3.6,0.1-5.1-1.6-5-5.1
		c0.1-15.2,0-30.4,0-45.6c0-3.3,1.4-4.9,4.8-4.8c4.5,0.1,9,0.1,13.4,0c3.6-0.1,5.1,1.5,5.1,5C130.4,12.7,130.4,20.3,130.4,27.9z"/>
	<path d="M238.1,27.9c0,7.4-0.1,14.9,0,22.3c0.1,3.8-1.4,5.5-5.2,5.4c-4.5-0.1-8.9,0-13.4,0c-3,0-4.5-1.4-4.5-4.5
		c0-15.5,0-31.1,0-46.6c0-3.2,1.6-4.4,4.7-4.3c4.5,0.1,8.9,0.1,13.4,0c3.6-0.1,5.1,1.4,5.1,5C238,12.7,238.1,20.3,238.1,27.9z"/>
	<path class="st0" d="M263.2,135.4c4,0,7.9,0,11.9,0c2.8,0,4.3,1.5,4.3,4.3c0,5,0,9.9,0,14.9c0,2.5-1.3,4.1-3.9,4.2
		c-8.1,0.1-16.2,0.1-24.3,0c-2.8,0-4.1-1.7-4.1-4.5c0-4.8,0-9.6,0-14.4c0-3.1,1.7-4.5,4.7-4.5C255.6,135.4,259.4,135.4,263.2,135.4z
		"/>
	<path d="M152.6,55.7c-3.6,0-7.3-0.1-10.9,0c-3.4,0.1-5-1.3-5-4.6c0-4.6,0-9.2,0-13.9c0-2.9,1.1-4.7,4.4-4.7c7.9,0.1,15.9,0,23.8,0
		c3,0,4.2,1.6,4.2,4.3c0,4.8,0,9.6,0,14.4c0,3-1.5,4.5-4.6,4.4C160.5,55.7,156.6,55.7,152.6,55.7z"/>
	<path d="M155.6,141.1c3.7,0,7.3,0.1,11,0c3.3-0.1,4.9,1.3,4.8,4.7c-0.1,4.6-0.1,9.3,0,13.9c0,3.1-1.4,4.5-4.5,4.5
		c-7.8-0.1-15.6-0.1-23.4,0c-2.9,0-4.3-1.3-4.3-4.2c0-4.8,0-9.6,0-14.4c0-3.1,1.3-4.6,4.5-4.5C147.6,141.1,151.6,141.1,155.6,141.1z
		"/>
	<path d="M260.6,55.7c-3.8,0-7.6-0.1-11.4,0c-3.1,0.1-4.6-1.2-4.6-4.3c0-4.9,0-9.9,0-14.8c0-2.6,1.3-3.9,4-3.9c8.1,0,16.2,0,24.3,0
		c2.7,0,3.9,1.5,3.9,4c0,4.9,0,9.9,0,14.8c0,2.8-1.4,4.2-4.3,4.2C268.6,55.7,264.6,55.7,260.6,55.7z"/>
</g>
</svg>
